<?xml version="1.0" encoding="UTF-8" standalone="no"?>
<!-- Created with Inkscape (http://www.inkscape.org/) -->

<svg
   xmlns:dc="http://purl.org/dc/elements/1.1/"
   xmlns:cc="http://creativecommons.org/ns#"
   xmlns:rdf="http://www.w3.org/1999/02/22-rdf-syntax-ns#"
   xmlns:svg="http://www.w3.org/2000/svg"
   xmlns="http://www.w3.org/2000/svg"
   xmlns:sodipodi="http://sodipodi.sourceforge.net/DTD/sodipodi-0.dtd"
   xmlns:inkscape="http://www.inkscape.org/namespaces/inkscape"
   width="210mm"
   height="297mm"
   viewBox="0 0 744.09448819 1052.3622047"
   id="svg2"
   version="1.1"
   inkscape:version="0.91 r13725"
   sodipodi:docname="AVLFEM_Logo_Vector.svg">
  <defs
     id="defs4" />
  <sodipodi:namedview
     id="base"
     pagecolor="#ffffff"
     bordercolor="#666666"
     borderopacity="1.0"
     inkscape:pageopacity="0.0"
     inkscape:pageshadow="2"
     inkscape:zoom="0.7"
     inkscape:cx="123.72888"
     inkscape:cy="423.95558"
     inkscape:document-units="px"
     inkscape:current-layer="layer1"
     showgrid="false"
     inkscape:window-width="1920"
     inkscape:window-height="1057"
     inkscape:window-x="-8"
     inkscape:window-y="-8"
     inkscape:window-maximized="1" />
  <metadata
     id="metadata7">
    <rdf:RDF>
      <cc:Work
         rdf:about="">
        <dc:format>image/svg+xml</dc:format>
        <dc:type
           rdf:resource="http://purl.org/dc/dcmitype/StillImage" />
        <dc:title></dc:title>
      </cc:Work>
    </rdf:RDF>
  </metadata>
  <g
     inkscape:label="Calque 1"
     inkscape:groupmode="layer"
     id="layer1">
    <path
       id="path3441"
       d="m 295.7314,582.50201 c 0.89425,-0.0817 1.79047,-0.13978 2.68752,-0.17906 0.66344,-0.078 1.30805,0.0269 1.96358,0.1074 0.64797,0.0222 1.27158,0.19806 1.91061,0.28624 0.56404,0.0689 1.13265,0.0796 1.70014,0.0857 0.57069,0.11314 1.14818,0.18012 1.7281,0.2205 0.51937,0.0555 1.05012,-0.0244 1.5619,0.0821 0.42962,0.11734 0.87168,0.15913 1.31461,0.18357 0.40779,0.0176 0.81603,0.0181 1.22412,0.0192 0,0 -3.03859,2.205 -3.03859,2.205 l 0,0 c -0.41367,-0.004 -0.82773,-0.007 -1.24048,-0.0384 -0.44812,-0.0402 -0.88885,-0.11691 -1.33009,-0.20344 -0.51379,-0.0322 -1.03023,-0.0161 -1.54312,-0.069 -0.57378,-0.0544 -1.14188,-0.15261 -1.71593,-0.19969 -0.57691,-0.0147 -1.1547,-0.0403 -1.72575,-0.12948 -0.63136,-0.10708 -1.25702,-0.24295 -1.89855,-0.27991 -0.64044,-0.0764 -1.27747,-0.11504 -1.92258,-0.0611 -0.89719,0.0398 -1.7945,0.0949 -2.68577,0.20877 0,0 3.01028,-2.23841 3.01028,-2.23841 z"
       inkscape:connector-curvature="0" />
    <path
       id="path3443"
       d="m 333.6245,582.29634 c 1.11094,-0.0801 2.19584,-0.34466 3.29415,-0.51516 0.94604,-0.21081 1.90059,-0.3699 2.86629,-0.45044 0.62594,-0.0459 1.2538,-0.0506 1.8811,-0.0485 0.68373,8.2e-4 1.36744,0.007 2.05117,0.008 0.98237,-0.0128 1.95914,0.003 2.93753,0.0899 0.43225,0.0415 0.86515,0.075 1.29825,0.10611 0,0 -3.03953,2.17172 -3.03953,2.17172 l 0,0 c -0.4289,-0.0374 -0.85756,-0.0773 -1.28633,-0.11616 -0.97653,-0.0747 -1.95344,-0.0656 -2.93235,-0.0562 -0.68684,-9.3e-4 -1.37368,0.001 -2.06052,9e-4 -0.61736,0.005 -1.23543,0.011 -1.85074,0.0676 -0.95148,0.0959 -1.88978,0.27333 -2.82825,0.45455 -1.11707,0.19113 -2.23057,0.44079 -3.36581,0.49313 0,0 3.03504,-2.20509 3.03504,-2.20509 z"
       inkscape:connector-curvature="0" />
    <path
       id="path3445"
       d="m 318.01682,535.41622 c 1.04158,0.28684 2.09918,0.52418 3.16253,0.71643 0.78488,0.0849 1.55163,0.27166 2.33359,0.37448 0.6587,0.11596 1.28995,0.33736 1.94392,0.47413 0.4335,0.18794 0.88388,0.28952 1.3518,0.33498 0.48225,0.0341 0.96612,0.0312 1.44928,0.0313 0.48971,-0.0519 0.94842,0.0441 1.42316,0.14028 0.29249,0.0557 0.58974,0.0741 0.88639,0.0907 0,0 -3.05502,2.18563 -3.05502,2.18563 l 0,0 c -0.30714,-0.0277 -0.61388,-0.0612 -0.91565,-0.12716 -0.45657,-0.09 -0.91192,-0.0992 -1.377,-0.0837 -0.49345,-0.003 -0.98873,-0.005 -1.47895,-0.0682 -0.4694,-0.0756 -0.91477,-0.22106 -1.36541,-0.36929 -0.63908,-0.15857 -1.26724,-0.36252 -1.92191,-0.45269 -0.77532,-0.12335 -1.5431,-0.29019 -2.32026,-0.40342 -1.06826,-0.21188 -2.1276,-0.46458 -3.19046,-0.70151 0,0 3.07399,-2.14197 3.07399,-2.14197 z"
       inkscape:connector-curvature="0" />
    <path
       id="path3447"
       d="m 299.71359,584.67142 c 0.61882,-1.04411 1.20548,-2.10818 1.75723,-3.18933 0.51666,-1.09621 1.16558,-2.11901 1.75653,-3.17468 0.63214,-1.13737 1.27233,-2.27133 1.83285,-3.44622 0.37363,-0.84404 0.8096,-1.65745 1.19436,-2.49592 0.37842,-0.82386 0.83372,-1.61247 1.17657,-2.45226 0.17509,-0.43026 0.35755,-0.85661 0.54916,-1.27953 0.11681,-0.43107 0.28015,-0.8392 0.47021,-1.24204 0.1854,-0.4066 0.35377,-0.82004 0.52916,-1.23095 0.15174,-0.36066 0.32942,-0.70947 0.50291,-1.05996 0.15146,-0.44447 0.32868,-0.87946 0.49065,-1.32007 0.149,-0.43513 0.37841,-0.83531 0.61874,-1.22523 0.18987,-0.3659 0.36097,-0.74879 0.48965,-1.14123 0.1219,-0.42723 0.31579,-0.82782 0.48948,-1.23529 0.19238,-0.41839 0.33924,-0.85195 0.56512,-1.25502 0.21697,-0.38313 0.42071,-0.77297 0.63849,-1.15573 0.31547,-0.55911 0.6418,-1.11191 0.98253,-1.65603 0.36281,-0.59789 0.81976,-1.13142 1.17908,-1.73095 0.27162,-0.46818 0.51196,-0.95152 0.75539,-1.4345 0.23618,-0.45219 0.43231,-0.92279 0.69599,-1.36 0.36542,-0.61294 0.70733,-1.23991 1.04089,-1.87074 0.23533,-0.47896 0.50916,-0.94371 0.70238,-1.44202 0.10196,-0.38089 0.33458,-0.70083 0.49323,-1.0556 0.15835,-0.38367 0.32651,-0.76319 0.46845,-1.15371 0.16352,-0.43893 0.34236,-0.87172 0.56061,-1.28644 0.19837,-0.41561 0.33105,-0.85599 0.56485,-1.25473 0.21466,-0.33872 0.25418,-0.73986 0.46771,-1.07827 0.25264,-0.32419 0.30156,-0.71977 0.37202,-1.11052 0.127,-0.42603 0.18669,-0.86654 0.29245,-1.29744 0,0 3.38678,-1.62267 3.38678,-1.62267 l 0,0 c -0.10905,0.43052 -0.17189,0.86572 -0.28885,1.29431 -0.1301,0.40155 -0.0827,0.85413 -0.31464,1.22714 -0.0658,0.094 -0.15466,0.17083 -0.21775,0.2667 -0.15522,0.23583 -0.0994,0.55591 -0.26084,0.79263 -0.23183,0.39844 -0.45906,0.78609 -0.58033,1.23889 -0.20364,0.40854 -0.40724,0.80899 -0.58317,1.23034 -0.11435,0.39945 -0.26642,0.79449 -0.45921,1.16154 -0.10861,0.38717 -0.33288,0.68892 -0.50094,1.04906 -0.14987,0.54082 -0.45412,1.0085 -0.69054,1.51403 -0.35803,0.61917 -0.67657,1.26231 -1.01834,1.89133 -0.29383,0.41223 -0.47074,0.86744 -0.7177,1.30554 -0.20443,0.5071 -0.48292,0.98159 -0.7472,1.4605 -0.31485,0.64337 -0.80533,1.16464 -1.18476,1.7682 -0.35764,0.51936 -0.66004,1.07769 -0.96145,1.63147 -0.23672,0.36866 -0.4097,0.76475 -0.65245,1.12824 -0.18502,0.41977 -0.46065,0.7981 -0.56057,1.25841 -0.22374,0.36129 -0.33947,0.78305 -0.52267,1.16423 -0.0971,0.43353 -0.29629,0.8188 -0.44911,1.23304 -0.21942,0.38833 -0.4726,0.74758 -0.65517,1.15629 -0.14073,0.45396 -0.35861,0.87875 -0.47156,1.34104 -0.13066,0.36694 -0.33384,0.70393 -0.51093,1.04942 -0.14417,0.426 -0.3512,0.828 -0.5226,1.24314 -0.15684,0.41379 -0.42721,0.78062 -0.4728,1.23347 -0.15249,0.44234 -0.38959,0.85154 -0.56773,1.28478 -0.31532,0.86274 -0.80074,1.64771 -1.18743,2.4788 -0.37137,0.85073 -0.80542,1.66703 -1.20206,2.50612 -0.54477,1.18928 -1.20621,2.31982 -1.82571,3.47084 -0.58099,1.06088 -1.24065,2.07429 -1.76736,3.16444 -0.54206,1.08026 -1.13807,2.1295 -1.69871,3.19997 0,0 -3.43089,1.51317 -3.43089,1.51317 z"
       inkscape:connector-curvature="0" />
    <path
       id="path3449"
       d="m 325.71875,537.07365 c 0.27623,1.10182 0.51224,2.21273 0.75886,3.32144 0.16782,1.05748 0.4515,2.08866 0.66936,3.13555 0.15342,0.90432 0.3697,1.79588 0.56241,2.69212 0.0949,0.80672 0.32731,1.57559 0.53776,2.35597 0.30215,1.04063 0.58684,2.08795 0.92993,3.11613 0.2987,1.08993 0.66717,2.15831 0.98444,3.24259 0.2519,0.99275 0.66983,1.91744 1.11268,2.83441 0.21779,0.54718 0.43248,1.09509 0.66636,1.63613 0.42663,1.03444 0.81495,2.08403 1.2161,3.12846 0.36256,1.00182 0.83685,1.95463 1.26724,2.92683 0.26616,0.66937 0.52123,1.34397 0.80911,2.00393 0.47673,1.0501 0.92548,2.11186 1.36957,3.17591 0.30199,0.81411 0.60509,1.6234 0.84433,2.45834 0.31122,0.56247 0.54483,1.16015 0.80596,1.74604 0.36437,0.59022 0.49236,1.28074 0.78613,1.90026 0.16898,0.41805 0.50589,0.72383 0.74152,1.09867 0.25828,0.35203 0.3992,0.77477 0.59906,1.16219 0.1993,0.39903 0.44231,0.77383 0.63597,1.17615 0.16539,0.49476 0.58101,0.78185 0.90139,1.16217 0.10981,0.13702 0.23952,0.23249 0.39959,0.29832 0,0 -3.16333,2.05046 -3.16333,2.05046 l 0,0 c -0.16506,-0.12168 -0.32656,-0.2484 -0.45484,-0.41063 -0.34619,-0.39729 -0.76113,-0.73284 -0.95081,-1.24568 -0.19261,-0.39819 -0.43275,-0.7701 -0.6294,-1.16592 -0.19961,-0.37702 -0.33502,-0.7888 -0.58806,-1.13337 -0.24445,-0.3857 -0.58723,-0.70952 -0.75229,-1.1458 -0.29156,-0.62406 -0.41505,-1.31595 -0.78456,-1.90704 -0.27658,-0.59891 -0.50455,-1.21868 -0.83098,-1.79426 -0.23878,-0.82196 -0.49207,-1.63616 -0.79914,-2.43636 -0.43373,-1.06433 -0.87959,-2.12314 -1.37759,-3.1596 -0.2979,-0.65659 -0.57568,-1.32532 -0.82167,-2.00325 -0.40702,-0.98825 -0.86641,-1.95484 -1.2385,-2.95802 -0.40179,-1.03524 -0.79636,-2.0741 -1.24754,-3.08918 -0.24513,-0.5342 -0.45659,-1.07965 -0.65526,-1.63218 -0.43858,-0.94135 -0.84527,-1.8951 -1.10941,-2.90375 -0.31514,-1.07913 -0.70858,-2.13369 -0.99774,-3.2209 -0.33752,-1.03636 -0.61457,-2.09187 -0.93735,-3.13288 -0.22182,-0.78461 -0.48969,-1.55262 -0.55785,-2.37243 -0.18052,-0.90066 -0.41446,-1.79058 -0.55068,-2.69995 -0.20926,-1.04753 -0.50894,-2.07391 -0.65958,-3.13372 -0.24385,-1.10533 -0.45365,-2.22077 -0.795,-3.30174 0,0 3.30381,-1.77541 3.30381,-1.77541 z"
       inkscape:connector-curvature="0" />
    <path
       id="path3451"
       d="m 313.72572,558.28349 c 0.74667,0.47097 1.58557,0.72313 2.40756,1.01784 0.4112,0.14743 0.81305,0.31977 1.22113,0.47562 0.90262,0.35821 1.8307,0.66662 2.77667,0.88878 0.57135,0.0947 1.14753,0.1926 1.69186,0.39614 0.52216,0.18893 1.08291,0.18288 1.61786,0.30448 0.50494,0.12834 1.02245,0.1793 1.54117,0.20648 0.51729,-0.0191 1.01559,0.12127 1.52452,0.19202 0.49774,0.0614 0.99973,0.0693 1.50054,0.0752 0.50432,0.004 1.00866,0.002 1.51299,10e-4 0.48816,-0.0319 0.99419,0.0656 1.47159,-0.0529 0.41383,-0.1514 0.87104,-0.0954 1.28137,-0.23872 0.26172,-0.0797 0.12873,-0.044 0.39907,-0.10679 0,0 -2.98698,2.28386 -2.98698,2.28386 l 0,0 c -0.26706,0.0714 -0.13285,0.0375 -0.40264,0.10165 -0.43638,0.0562 -0.86812,0.1314 -1.30083,0.20982 -0.49921,0.0186 -0.999,0.005 -1.49847,0.01 -0.50579,4.7e-4 -1.01164,0.002 -1.51738,-0.007 -0.5111,-0.0131 -1.02309,-0.0345 -1.5288,-0.11539 -0.50043,-0.0813 -0.99764,-0.16964 -1.50702,-0.16723 -0.52734,-0.0449 -1.0487,-0.12654 -1.56487,-0.24474 -0.55596,-0.0845 -1.11682,-0.15172 -1.64977,-0.34276 -0.54687,-0.15707 -1.10136,-0.27289 -1.65871,-0.38552 -0.94433,-0.25502 -1.87305,-0.57175 -2.77786,-0.94336 -1.23745,-0.48889 -2.51254,-0.88694 -3.6915,-1.51291 0,0 3.1385,-2.04554 3.1385,-2.04554 z"
       inkscape:connector-curvature="0" />
    <path
       id="path3453"
       d="m 323.8149,513.65259 c 1.30087,0.13181 2.57053,0.45884 3.85953,0.6718 1.3093,0.16954 2.59197,0.47608 3.90084,0.65084 1.09538,0.20443 2.20513,0.30898 3.31659,0.37111 0.64163,0.0289 1.27582,-0.005 1.90529,0.12981 0.43934,0.10135 0.88986,0.12505 1.33878,0.14085 0.49469,0.0124 0.9896,0.0107 1.4844,0.0103 0.25257,-3e-4 0.50513,-6.4e-4 0.7577,-9.5e-4 0,0 -3.03686,2.20696 -3.03686,2.20696 l 0,0 c -0.2527,2.9e-4 -0.5054,6.4e-4 -0.7581,5.6e-4 -0.4989,-6.7e-4 -0.9981,-9e-5 -1.49655,-0.024 -0.4605,-0.0286 -0.91819,-0.0806 -1.36909,-0.18181 -0.61289,-0.0962 -1.2377,-0.0468 -1.85428,-0.11178 -1.11126,-0.0856 -2.21898,-0.2119 -3.3172,-0.40486 -1.30143,-0.19644 -2.58478,-0.48893 -3.8884,-0.67156 -1.29496,-0.22475 -2.58096,-0.53444 -3.89604,-0.61501 0,0 3.05339,-2.17226 3.05339,-2.17226 z"
       inkscape:connector-curvature="0" />
    <path
       id="path3455"
       d="m 379.89805,513.12268 c 1.10347,0.73247 2.36228,1.13427 3.58455,1.61298 1.23788,0.425 2.49772,0.79173 3.78851,1.01379 0.8961,0.11865 1.78676,0.27378 2.67795,0.42472 0.71331,0.12203 1.43443,0.17952 2.15694,0.204 0.5221,0.0124 1.0444,0.009 1.5666,0.008 0.0838,-2.2e-4 0.16753,-4.4e-4 0.25129,-6.6e-4 0,0 -3.03682,2.20734 -3.03682,2.20734 l 0,0 c -0.0838,1.2e-4 -0.16758,2.5e-4 -0.25138,3.8e-4 -0.52425,1e-5 -1.0488,5e-4 -1.57255,-0.0256 -0.72609,-0.0432 -1.44885,-0.12513 -2.16509,-0.2539 -0.89057,-0.15161 -1.78363,-0.28742 -2.67491,-0.43477 -1.2927,-0.26307 -2.55702,-0.6483 -3.80009,-1.08807 -1.2577,-0.4798 -2.53067,-0.92966 -3.67817,-1.64894 0,0 3.15317,-2.01893 3.15317,-2.01893 z"
       inkscape:connector-curvature="0" />
    <path
       id="path3457"
       d="m 330.5385,515.37477 c 0.24339,1.12045 0.5714,2.2188 0.83799,3.33344 0.19473,0.94123 0.39117,1.882 0.58307,2.82384 0.24004,0.84614 0.47853,1.68961 0.63932,2.55541 0.17628,0.72557 0.36112,1.45243 0.60861,2.1576 0.40709,1.00524 0.87713,1.98496 1.34638,2.96247 0.62724,1.27475 1.31359,2.52263 2.07843,3.72011 0.61868,0.99345 1.37205,1.88936 1.98178,2.88828 0.77443,1.16208 1.41024,2.40361 2.05899,3.63767 0.72013,1.35549 1.19361,2.81094 1.72226,4.24503 0.3971,1.24096 0.96073,2.41466 1.47464,3.60904 0.30817,0.90024 0.69391,1.77026 1.04211,2.65492 0.40154,0.97075 0.77387,1.95196 1.15048,2.93246 0.33926,0.87632 0.76158,1.71354 1.12007,2.58127 0.3183,0.63603 0.47869,1.32926 0.71731,1.99436 0.26678,0.71361 0.48507,1.4418 0.69238,2.1746 0.15317,0.64508 0.367,1.27358 0.59901,1.89395 0.22939,0.59811 0.31812,1.2332 0.49295,1.84648 0.19732,0.54431 0.445,1.06227 0.59381,1.62418 0.11841,0.38566 0.29002,0.75671 0.49768,1.10241 0.26559,0.23124 0.48264,0.49575 0.7108,0.76158 0,0 -3.22643,1.93863 -3.22643,1.93863 l 0,0 c -0.23484,-0.28556 -0.50009,-0.53447 -0.74095,-0.81518 -0.22233,-0.37958 -0.41178,-0.7815 -0.54063,-1.20275 -0.13299,-0.56389 -0.38032,-1.07677 -0.59082,-1.61356 -0.16851,-0.6055 -0.24731,-1.23129 -0.46776,-1.82262 -0.24195,-0.62885 -0.46198,-1.26849 -0.60964,-1.92674 -0.19951,-0.72488 -0.41629,-1.44317 -0.6824,-2.14655 -0.24534,-0.65838 -0.3883,-1.35232 -0.70785,-1.98346 -0.35393,-0.87259 -0.7462,-1.7272 -1.09784,-2.6011 -0.38493,-0.97653 -0.75294,-1.95778 -1.16976,-2.92163 -0.34072,-0.88465 -0.72232,-1.7536 -1.01585,-2.65643 -0.50682,-1.2047 -1.07892,-2.3823 -1.46668,-3.63369 -0.52714,-1.4177 -0.9744,-2.86694 -1.69684,-4.20473 -0.64407,-1.22751 -1.28947,-2.4542 -2.06798,-3.60375 -0.61425,-0.99303 -1.35991,-1.89367 -1.96937,-2.8902 -0.75978,-1.21654 -1.45387,-2.47429 -2.09228,-3.75866 -0.48766,-0.9824 -0.98251,-1.9638 -1.40452,-2.97657 -0.26435,-0.72169 -0.44737,-1.4713 -0.63775,-2.21482 -0.1413,-0.86823 -0.37734,-1.70788 -0.62959,-2.54912 -0.18926,-0.94074 -0.38066,-1.88083 -0.56109,-2.82335 -0.25115,-1.10747 -0.57944,-2.19534 -0.85848,-3.29579 0,0 3.28644,-1.79703 3.28644,-1.79703 z"
       inkscape:connector-curvature="0" />
    <path
       id="path3459"
       d="m 386.17447,518.2563 c -0.79768,1.20681 -1.63659,2.38776 -2.50733,3.54305 -1.20598,1.61286 -2.60106,3.06816 -3.89824,4.60641 -1.79345,2.08199 -3.26959,4.41168 -4.75319,6.71794 -1.18571,1.879 -2.35965,3.76583 -3.59708,5.61137 -1.19657,1.67638 -2.36224,3.37463 -3.58509,5.03209 -1.12499,1.63954 -2.39262,3.17166 -3.63579,4.72115 -1.23048,1.54928 -2.49403,3.07152 -3.67673,4.65797 -1.13127,1.50453 -2.23525,3.02946 -3.34234,4.55186 -0.75953,1.07674 -1.46466,2.19093 -2.18597,3.29346 -0.32283,0.54681 -0.61498,1.10224 -0.97274,1.62732 -0.19921,0.33157 -0.3411,0.69272 -0.52056,1.03412 -0.15791,0.36877 -0.28971,0.74458 -0.46754,1.10569 -0.0365,0.0738 -0.073,0.14753 -0.10945,0.2213 0,0 -3.42517,1.54081 -3.42517,1.54081 l 0,0 c 0.0382,-0.0679 0.0764,-0.13577 0.11455,-0.20365 0.16352,-0.36976 0.37399,-0.71406 0.45854,-1.11413 0.17193,-0.3554 0.35803,-0.70087 0.5127,-1.06451 0.12584,-0.22797 0.28799,-0.40078 0.43257,-0.61381 0.17029,-0.25092 0.19147,-0.37595 0.3386,-0.65254 0.071,-0.13346 0.1522,-0.26122 0.2283,-0.39183 0.76624,-1.08977 1.45092,-2.2359 2.22169,-3.32256 1.11373,-1.52466 2.23241,-3.04597 3.35801,-4.56165 1.17598,-1.59907 2.44324,-3.12444 3.68114,-4.67552 1.23973,-1.54149 2.50977,-3.06283 3.62334,-4.70007 1.23254,-1.65957 2.42259,-3.34932 3.62467,-5.03094 1.2402,-1.84612 2.4116,-3.73705 3.61072,-5.60995 1.49101,-2.30999 2.97101,-4.64509 4.73532,-6.75878 0.46323,-0.56066 1.03783,-1.26482 1.52076,-1.81711 0.79153,-0.90522 1.64146,-1.76115 2.3311,-2.7517 0.86512,-1.12461 1.67045,-2.29135 2.46535,-3.4664 0,0 3.41986,-1.52939 3.41986,-1.52939 z"
       inkscape:connector-curvature="0" />
    <path
       id="path3461"
       d="m 386.42835,527.58968 c 0.94102,0.22186 1.87597,0.48466 2.79947,0.77202 0.7517,0.22366 1.5285,0.34059 2.30016,0.47064 0.82927,0.12532 1.66791,0.15808 2.50512,0.17674 0.69073,0.0115 1.38156,0.008 2.07234,0.005 0.53487,-0.003 1.06973,-0.004 1.6046,-0.004 0.55451,-0.11838 1.1194,-0.17764 1.68424,-0.21853 0.41657,0.0274 0.80153,-0.0969 1.20251,-0.18089 0,0 -2.99413,2.27196 -2.99413,2.27196 l 0,0 c -0.40451,0.0859 -0.81015,0.12291 -1.22354,0.13844 -0.57027,0.0547 -1.13452,0.16011 -1.70585,0.19573 -0.5331,3.1e-4 -1.0662,9e-4 -1.5993,3.8e-4 -0.68955,-10e-4 -1.37926,-0.002 -2.06856,-0.0221 -0.84814,-0.0308 -1.69687,-0.0796 -2.53518,-0.21995 -0.78114,-0.13684 -1.56613,-0.26229 -2.32113,-0.51367 -0.92445,-0.2782 -1.85157,-0.56189 -2.80255,-0.73432 0,0 3.0818,-2.13769 3.0818,-2.13769 z"
       inkscape:connector-curvature="0" />
    <path
       id="path3463"
       d="m 393.9641,530.87036 c -1.33471,1.23727 -2.61258,2.53512 -3.87599,3.84461 -1.76675,1.84516 -3.50108,3.72199 -5.04449,5.75938 -1.52111,2.00727 -2.90684,4.11084 -4.34054,6.18009 -1.5042,2.20694 -2.96006,4.4436 -4.38773,6.70063 -1.4492,2.33453 -2.94173,4.64273 -4.34262,7.00674 -0.21241,0.35749 -0.4224,0.71643 -0.63723,1.07248 -0.52583,0.87151 -0.8023,1.27137 -1.28717,2.17643 -0.58747,1.09655 -1.07003,2.23887 -1.55283,3.38364 -0.60838,1.33544 -1.20972,2.67076 -1.76288,4.0301 -0.24322,0.72418 -0.46425,1.45053 -0.74687,2.16155 -0.37406,0.81868 -0.65788,1.67254 -0.94135,2.52536 -0.0153,0.25531 -0.47501,1.08808 -0.41115,1.29929 0.3701,-0.0192 0.74705,-10e-4 1.11909,8.2e-4 0.65981,0.0486 1.29486,-0.0387 1.94006,-0.15514 0.62782,-0.14747 1.24081,-0.34582 1.87839,-0.46984 0.66555,-0.11363 1.32327,-0.26603 1.97555,-0.44035 0.57114,-0.26355 1.19737,-0.31305 1.77218,-0.56226 0.84402,-0.24153 1.66708,-0.50572 2.45508,-0.89737 0.94305,-0.45127 1.9447,-0.75852 2.97201,-0.94191 0.59432,-0.095 1.19679,-0.0989 1.79696,-0.0984 0.60944,0.003 1.21885,0.0101 1.82829,0.0145 0.96096,0.005 1.92195,0.006 2.88292,0.006 0.88461,4.1e-4 1.76922,-0.002 2.65382,-0.006 0.82215,8.9e-4 1.6443,0.004 2.46646,0.003 0.92754,0.002 1.85508,0.002 2.78263,0.002 1.06389,-0.0271 2.12234,0.0132 3.18296,0.0889 1.44624,0.0986 2.89559,0.13529 4.34472,0.15645 1.22415,0.0946 2.44849,0.17941 3.6755,0.22555 1.19881,0.0277 2.39875,0.0669 3.59682,0.008 1.85737,-0.0505 3.70935,-0.18858 5.56348,-0.3006 1.58262,-0.12292 3.17339,-0.0915 4.75579,-0.20325 1.14849,-0.0878 2.29745,-0.16412 3.44851,-0.20735 0.84198,-0.0269 1.68442,-0.0231 2.5267,-0.0245 0.91624,-10e-4 1.83246,0.004 2.74869,0.006 1.06603,10e-4 2.13206,4.8e-4 3.19808,7e-5 1.12043,0.002 2.24085,7.2e-4 3.36127,0.003 1.56509,0.0277 3.12783,-0.0829 4.69104,-0.14647 1.71517,-0.0615 3.4314,-0.0842 5.14753,-0.0971 1.66393,0.007 3.32516,-0.0969 4.988,-0.15051 2.22491,-0.0654 4.45076,-0.0801 6.67647,-0.0869 2.43444,0.079 4.86852,0.1619 7.30398,0.20407 1.46754,0.0248 2.93532,0.0249 4.40302,0.0225 0.79696,-0.004 1.59393,-0.007 2.3909,-0.006 1.21343,0.008 2.42686,0.0119 3.64031,0.0116 1.28394,4.9e-4 2.56787,-0.002 3.8518,-0.005 0.82631,-0.004 1.6526,-0.008 2.47892,-0.008 1.19652,0.006 2.39304,0.0126 3.58956,0.0172 1.83941,0.005 3.67884,0.005 5.51825,0.007 1.61403,-0.002 3.22806,-0.007 4.84208,-0.0122 1.18181,0.0302 2.35778,-0.0967 3.53641,-0.16222 1.4097,-0.0687 2.82133,-0.0757 4.23236,-0.086 1.42374,-0.0783 2.84716,-0.16319 4.27195,-0.22036 1.23056,0.003 2.44994,-0.12964 3.67235,-0.2556 1.71246,-0.18062 3.42372,-0.37521 5.14127,-0.50147 0.66343,-0.0491 1.3286,-0.0581 1.99352,-0.0585 0.50293,0.0525 0.97893,-0.0518 1.46982,-0.13553 0.50321,-0.0803 1.01304,-0.0972 1.52153,-0.10823 0.40502,0.0229 0.78344,-0.0112 1.17421,-0.10827 0,0 -2.9974,2.26869 -2.9974,2.26869 l 0,0 c -0.40012,0.0604 -0.80341,0.0409 -1.20701,0.0558 -0.49961,0.0207 -0.99896,0.0566 -1.49124,0.14914 -0.50019,0.0835 -0.9988,0.10539 -1.50596,0.0852 -0.6498,0.002 -1.29966,0.0147 -1.94831,0.0564 -1.69669,0.10943 -3.38902,0.27655 -5.07766,0.47378 -1.2425,0.14946 -2.4813,0.28666 -3.73499,0.26855 -1.42331,0.0526 -2.84457,0.14154 -4.26741,0.2026 -1.41032,0.009 -2.8213,0.0257 -4.22961,0.10811 -1.18109,0.0751 -2.36105,0.18761 -3.54609,0.14201 -1.60287,-0.006 -3.20575,-0.01 -4.80863,-0.0122 -1.84554,10e-4 -3.6911,0.002 -5.53664,0.007 -1.21234,0.005 -2.42467,0.0113 -3.637,0.0172 -0.81923,5.2e-4 -1.63845,-0.004 -2.45766,-0.008 -1.279,-0.003 -2.55801,-0.006 -3.83701,-0.005 -1.22463,-2.4e-4 -2.44924,0.004 -3.67384,0.0131 -0.79252,0.002 -1.58505,0.002 -2.37754,-0.006 -1.44829,-0.0114 -2.89637,-0.0381 -4.34426,-0.0736 -2.43104,-0.0646 -4.86143,-0.1527 -7.2929,-0.20035 -2.22737,0.0122 -4.45519,0.0261 -6.68142,0.10483 -1.67429,0.0669 -3.34715,0.19069 -5.02372,0.16314 -1.7088,0.009 -3.4179,0.0254 -5.12545,0.0971 -1.57713,0.0681 -3.15316,0.18382 -4.73273,0.15778 -1.12337,0.002 -2.24674,10e-4 -3.37011,0.003 -1.06569,-5e-4 -2.13139,-0.002 -3.19708,-9.8e-4 -0.92022,0.001 -1.84043,0.004 -2.76065,0.003 -0.83809,4.2e-4 -1.67635,0.005 -2.51408,0.0318 -1.14212,0.0412 -2.28231,0.1166 -3.42218,0.19826 -1.57278,0.0748 -3.14923,0.0658 -4.72065,0.1785 -1.86575,0.11689 -3.73053,0.23934 -5.5985,0.31725 -1.20936,0.041 -2.41985,0.0226 -3.62899,-0.0226 -1.22212,-0.0571 -2.44107,-0.15843 -3.66263,-0.22424 -1.45087,-0.0337 -2.90123,-0.0875 -4.3501,-0.17215 -1.06348,-0.056 -2.12589,-0.0679 -3.19085,-0.0549 -0.92941,5.1e-4 -1.85883,2.3e-4 -2.78824,0.002 -0.82455,-9.7e-4 -1.6491,0.002 -2.47364,0.003 -0.87939,-0.003 -1.75879,-0.006 -2.63819,-0.006 -0.96491,8e-5 -1.92982,1.1e-4 -2.89474,0.001 -0.61401,9.8e-4 -1.22802,1.7e-4 -1.84203,-6.5e-4 -0.58264,0.007 -1.16689,0.0288 -1.74012,0.14344 -1.00646,0.21377 -1.98141,0.54541 -2.90374,1.00509 -0.81071,0.35898 -1.65794,0.60058 -2.49484,0.88985 -0.59495,0.18844 -1.2071,0.31917 -1.79516,0.53179 -0.65417,0.16656 -1.31803,0.29326 -1.98054,0.42181 -0.63685,0.14484 -1.25188,0.37201 -1.89898,0.46694 -0.65346,0.10429 -1.30929,0.1076 -1.97026,0.0965 -0.48236,-0.002 -1.03067,0.0537 -1.37585,-0.34615 -0.16846,-0.3582 -0.0399,-0.52996 0.0896,-0.88024 0.0839,-0.22707 0.12179,-0.46979 0.22627,-0.69014 0.31175,-0.84665 0.54093,-1.72644 0.94059,-2.54026 0.27673,-0.71525 0.53308,-1.43188 0.74469,-2.1682 0.5787,-1.37518 1.20087,-2.72715 1.84669,-4.07222 0.49195,-1.15343 0.97403,-2.31412 1.55255,-3.42798 0.55534,-1.06923 0.66157,-1.16809 1.27806,-2.18204 0.21646,-0.35603 0.42746,-0.71536 0.64118,-1.07304 1.40176,-2.37199 2.9095,-4.67881 4.35532,-7.0241 1.42596,-2.25305 2.85843,-4.49972 4.35831,-6.70453 1.44007,-2.07156 2.82697,-4.18069 4.34609,-6.19624 1.51773,-2.0605 3.25029,-3.94062 5.01269,-5.79375 1.22726,-1.29362 2.4713,-2.57554 3.76164,-3.80592 0,0 3.46258,-1.43425 3.46258,-1.43425 z"
       inkscape:connector-curvature="0" />
    <path
       id="path3465"
       d="m 525.83358,558.89284 c -0.88982,1.42153 -1.52759,2.97774 -2.22161,4.49897 -0.62266,1.56729 -1.2925,3.11749 -1.88156,4.69789 -0.43109,1.1388 -0.80638,2.29584 -1.21828,3.44155 -0.40527,0.98397 -0.69601,2.00641 -1.03279,3.0134 -0.36392,0.87776 -0.82503,1.70968 -1.1965,2.58421 -0.24232,0.56489 -0.44204,1.14546 -0.7544,1.6765 0,0 -3.43521,1.49587 -3.43521,1.49587 l 0,0 c 0.38936,-0.47678 0.55541,-1.05605 0.80455,-1.61201 0.35518,-0.87687 0.7963,-1.71374 1.20302,-2.56734 0.38276,-0.99398 0.61895,-2.04476 1.05617,-3.02144 0.39584,-1.15471 0.79544,-2.30776 1.22404,-3.45076 0.58552,-1.60107 1.30788,-3.14868 1.91287,-4.74268 0.68992,-1.50651 1.30771,-3.04782 2.10881,-4.50099 0,0 3.43089,-1.51317 3.43089,-1.51317 z"
       inkscape:connector-curvature="0" />
    <path
       id="path3467"
       d="m 462.49378,565.79584 c 0.02,-0.8457 0.008,-1.69171 0.007,-2.53754 -0.002,-0.64019 -0.005,-1.28037 -0.007,-1.92055 9.3e-4,-0.57555 10e-4,-1.15111 3.7e-4,-1.72667 -9.8e-4,-0.52628 -10e-4,-1.05257 -0.002,-1.57885 -0.004,-0.51698 -0.0169,-1.03106 0.0582,-1.54354 0.0953,-0.49375 0.14597,-0.99313 0.17381,-1.49468 0.007,-0.45168 0.0746,-0.90647 0.25467,-1.3223 1.46113,-2.01755 3.33711,-2.14649 5.35468,-2.17761 0.89989,-0.0104 1.79988,-0.009 2.69982,-0.009 0.72834,0.003 1.45669,0.005 2.18503,0.004 0.39123,0.0542 0.21181,0.0192 0.53977,0.0968 0,0 -3.08432,2.14935 -3.08432,2.14935 l 0,0 c -0.28909,-0.0454 -0.12877,-0.0265 -0.4819,-0.0477 -0.72862,-0.002 -1.45724,-0.002 -2.18586,-0.005 -0.89129,-0.007 -1.78274,-0.0161 -2.67395,0.004 -0.46639,0.0165 -0.94449,0.0157 -1.40448,0.107 -0.10023,0.0199 -0.38223,0.13586 -0.29543,0.0819 2.76502,-1.71836 4.12687,-2.04639 2.79681,-1.70737 -0.30455,0.26747 -0.32425,0.75629 -0.35182,1.13776 -0.0208,0.51393 -0.0558,1.02808 -0.15479,1.53387 -0.0916,0.49473 -0.10356,0.98485 -0.0856,1.48847 -2.4e-4,0.52685 -6.8e-4,1.0537 -0.002,1.58055 -9.3e-4,0.57544 -5.6e-4,1.15086 3.7e-4,1.72629 -0.002,0.64256 -0.005,1.28511 -0.007,1.92767 -4.7e-4,0.84337 -0.0128,1.68691 0.007,2.53014 0,0 -3.34263,1.70315 -3.34263,1.70315 z"
       inkscape:connector-curvature="0" />
    <path
       id="path3469"
       d="m 467.21718,558.30522 c 0.85603,0.0117 1.71222,0.007 2.56832,0.005 0.63391,-0.002 1.26782,-0.004 1.90174,-0.005 0.51086,-7.4e-4 1.02172,-7.6e-4 1.53259,-7.9e-4 1.93337,0.0347 1.64906,-0.57168 -2.36378,2.21087 -0.44449,-0.004 -0.88899,-0.004 -1.33349,-0.004 -0.46582,-0.051 -0.90017,0.10913 -1.3543,0.17942 -0.49471,0.0579 -0.98067,0.0226 -1.4473,0.21438 -0.47634,0.21185 -0.98665,0.29333 -1.50151,0.33818 -0.37258,0.0194 -0.7247,0.15175 -1.09442,0.20971 0,0 2.99986,-2.26483 2.99986,-2.26483 l 0,0 c 0.36636,-0.079 0.72922,-0.17209 1.10598,-0.18723 0.50197,-0.0752 0.98243,-0.21815 1.46044,-0.38766 0.48933,-0.096 0.9889,-0.0899 1.47904,-0.18399 0.46099,-0.0898 0.91704,-0.16135 1.38966,-0.12482 0.44826,-3.6e-4 0.89653,-5.2e-4 1.34477,-0.004 -2.82762,2.15747 -1.82789,2.23805 -3.72223,2.21088 -0.51014,-3e-5 -1.02028,-6e-5 -1.53042,-7.9e-4 -0.62908,-10e-4 -1.25815,-0.003 -1.88723,-0.005 -0.86091,-0.002 -1.72191,-0.006 -2.58276,0.005 0,0 3.03504,-2.20509 3.03504,-2.20509 z"
       inkscape:connector-curvature="0" />
    <path
       id="path3471"
       d="m 482.79191,553.39261 c -1.31959,-0.14134 -2.64785,-0.17194 -3.97369,-0.20055 -1.22207,-0.0122 -2.44284,-0.10841 -3.66076,-0.20686 -0.0686,0.01 -0.1434,-3.2e-4 -0.20572,0.03 -0.0434,0.0211 -0.13173,0.13723 -0.0896,0.11367 1.05477,-0.59032 2.08488,-1.22388 3.1369,-1.8191 0.0299,-0.0169 -0.0518,0.0486 -0.0643,0.0806 -0.0349,0.0892 -0.0311,0.29871 -0.0336,0.37561 0.0189,0.76105 0.0276,1.52217 0.0329,2.28342 -0.0474,1.09121 -0.12906,2.1807 -0.25874,3.26518 -0.11212,0.8637 -0.17404,1.73262 -0.20712,2.6026 0.0313,0.42536 -0.23471,0.85462 -0.14193,1.27415 0.20469,0.26278 0.50422,0.29636 0.79562,0.40945 0.75318,0.30659 1.57734,0.34287 2.3696,0.4853 0.96348,0.17387 1.92452,0.34373 2.89943,0.44224 0.65726,0.0516 1.31958,0.0307 1.94469,0.26314 0.23751,0.11104 0.45785,0.18085 0.71824,0.14655 0,0 -3.06273,2.20191 -3.06273,2.20191 l 0,0 c -0.2606,-0.0539 -0.50831,-0.14605 -0.75851,-0.23536 -0.61708,-0.15329 -1.25368,-0.14004 -1.88214,-0.21877 -0.97634,-0.12068 -1.94194,-0.30075 -2.9126,-0.45842 -0.81927,-0.12992 -1.65323,-0.22424 -2.4326,-0.52525 -0.40516,-0.13927 -0.75596,-0.31994 -0.98222,-0.70237 -0.16431,-0.47107 0.0167,-0.92321 0.10343,-1.3969 0.038,-0.88315 0.11135,-1.76407 0.21534,-2.64197 0.14105,-1.06869 0.22158,-2.14196 0.27827,-3.21847 -0.011,-0.75635 -0.027,-1.5127 -0.0647,-2.26827 -0.003,-0.0583 -0.0671,-0.62144 -0.0137,-0.65779 2.35391,-1.60193 2.11946,-2.13617 3.66491,-2.00264 1.1941,0.1318 2.39609,0.20696 3.5973,0.21933 1.34832,0.0317 2.69698,0.0742 4.04138,0.18728 0,0 -3.05339,2.17225 -3.05339,2.17225 z"
       inkscape:connector-curvature="0" />
    <path
       id="path3473"
       d="m 479.8561,556.07951 c 0.89201,0.2228 1.81227,0.28287 2.71429,0.44551 0.65716,0.13355 1.32182,0.21417 1.99092,0.2502 0.51269,0.0207 1.02595,0.0179 1.53895,0.0171 0.33486,-7.6e-4 0.16741,-3.7e-4 0.50235,-10e-4 0,0 -3.03687,2.20729 -3.03687,2.20729 l 0,0 c -0.3352,4.9e-4 -0.16758,3.6e-4 -0.50284,4.1e-4 -0.51717,-10e-4 -1.03491,-0.003 -1.551,-0.0403 -0.6708,-0.0573 -1.33459,-0.16342 -1.99546,-0.29146 -0.90607,-0.14116 -1.81403,-0.27087 -2.71941,-0.41627 0,0 3.05907,-2.17124 3.05907,-2.17124 z"
       inkscape:connector-curvature="0" />
    <path
       id="path3475"
       d="m 488.27366,564.51456 c 0.12514,-0.92624 0.17917,-1.86 0.21285,-2.79341 0.0154,-0.88209 0.0555,-1.76567 0.005,-2.64705 -0.0673,-0.81002 -0.1517,-1.61829 -0.20205,-2.42965 -0.0285,-0.61894 -0.0346,-1.23859 -0.0381,-1.85808 0.004,-0.47606 -0.009,-0.95236 -0.002,-1.42833 1.17012,-0.55493 2.29187,-1.22617 3.51037,-1.66479 0.13485,-0.0485 0.21807,0.18627 0.32155,0.28542 0.62134,0.59532 1.20232,1.23443 1.78677,1.86533 0.90526,0.93338 1.81421,1.8618 2.73387,2.78052 0.40904,0.36627 0.76731,0.79052 1.27229,1.02516 0.0572,0.0175 0.35396,0.11578 0.41649,0.10287 0.0715,-0.0148 0.24544,-0.15746 0.18136,-0.12257 -0.9827,0.53505 -1.94715,1.10375 -2.93803,1.62348 -0.13754,0.0721 0.25335,-0.18011 0.37359,-0.27841 0.1314,-0.10743 0.25375,-0.22547 0.38063,-0.33821 0.83263,-0.79275 1.39881,-1.805 2.06708,-2.73018 0.47974,-0.60868 0.93441,-1.22631 1.28488,-1.91893 1.16227,-0.48594 2.26879,-1.13621 3.48681,-1.4578 0.1674,-0.0442 0.0957,0.33289 0.13677,0.50108 0.20718,0.84782 0.34823,1.71162 0.485,2.57293 0.12518,0.78733 0.19197,1.58157 0.21872,2.37782 0.0125,0.51704 0.008,1.03429 0.006,1.55142 0.0396,0.4671 0.11281,0.9322 0.25079,1.38047 0.15101,0.4497 0.20093,0.92043 0.23129,1.39099 0.0209,0.41775 0.0211,0.83615 0.0221,1.25431 0,0 -3.34479,1.70481 -3.34479,1.70481 l 0,0 c -1.2e-4,-0.41176 6.5e-4,-0.82366 -0.014,-1.23522 -0.0212,-0.44133 -0.0528,-0.88521 -0.19053,-1.30842 -0.152,-0.48445 -0.23042,-0.98088 -0.30083,-1.48373 0.002,-0.51494 0.007,-1.02989 0.004,-1.54484 -0.011,-0.78765 -0.0519,-1.57494 -0.15957,-2.35603 -0.0912,-0.64564 -0.1882,-1.2888 -0.33106,-1.92558 -0.045,-0.20038 -0.0963,-0.39932 -0.14886,-0.59784 -0.0356,-0.13433 -0.22798,-0.3189 -0.11554,-0.40057 1.00953,-0.73323 2.16154,-1.24693 3.24232,-1.8704 -0.26783,0.13245 -0.34281,0.47 -0.48862,0.71706 -0.2496,0.42292 -0.57895,0.78003 -0.86824,1.17475 -0.23066,0.31415 -0.47959,0.61536 -0.69608,0.93945 -0.42252,0.63251 -0.77738,1.3219 -1.3357,1.85447 -1.31398,1.2645 -3.16159,3.36068 -5.00003,2.47887 -0.5028,-0.30088 -0.8974,-0.72401 -1.30793,-1.13722 -0.89865,-0.93797 -1.78777,-1.88523 -2.70108,-2.80915 -0.47482,-0.49642 -0.94798,-0.99051 -1.44703,-1.46274 -0.11766,-0.11134 -0.23047,-0.2283 -0.35512,-0.33176 -0.0952,-0.079 -0.40198,-0.14028 -0.30296,-0.21447 0.96784,-0.7251 2.0677,-1.2548 3.10155,-1.8822 -0.0396,-0.01 -0.0944,-0.0626 -0.11865,-0.0299 -0.071,0.0959 0.0356,1.05999 -0.006,1.2445 -5.6e-4,0.6148 -0.002,1.22986 0.0232,1.84428 0.0361,0.81189 0.10186,1.6218 0.18804,2.42992 0.0733,0.89276 0.016,1.79111 0.005,2.68583 -0.0334,0.93684 -0.0843,1.87242 -0.17498,2.80573 0,0 -3.36107,1.66596 -3.36107,1.66596 z"
       inkscape:connector-curvature="0" />
    <path
       id="path3477"
       d="m 382.26979,520.41666 c 0.26845,-0.48681 0.58928,-0.9406 0.81032,-1.45201 0.15984,-0.31751 0.25315,-0.65984 0.37861,-0.99037 0,0 2.41148,-1.11971 2.41148,-1.11971 l 0,0 c -0.12891,0.33433 -0.21933,0.68139 -0.3892,0.99995 -0.19665,0.52822 -0.50112,0.99 -0.79419,1.46861 0,0 -2.41702,1.09353 -2.41702,1.09353 z"
       inkscape:connector-curvature="0" />
    <path
       id="path3479"
       d="m 384.85393,519.13264 c 0.0256,-0.0941 0.0577,-0.18605 0.0883,-0.27853 0.0183,-0.0604 0.0513,-0.11497 0.0846,-0.16814 0.0208,-0.0497 0.0464,-0.0965 0.0732,-0.14302 0.0202,-0.0436 0.0517,-0.0802 0.0751,-0.12189 0.0261,-0.0439 0.065,-0.0783 0.0993,-0.11584 0.0324,-0.041 0.0632,-0.0835 0.0886,-0.12914 0.0272,-0.0463 0.0596,-0.0893 0.0934,-0.13103 0.0268,-0.0346 0.0563,-0.0675 0.0805,-0.10386 4.7e-4,0.006 0.004,0.0119 0.001,0.0167 -0.007,0.0106 -0.0253,10e-4 -0.0367,0.006 -0.007,0.003 -0.0257,0.0189 -0.0187,0.0151 0.35413,-0.19562 0.5017,-0.29877 0.35262,-0.19577 -0.0496,0.0428 -0.0874,0.098 -0.12183,0.1533 -0.0289,0.0535 -0.0555,0.10825 -0.0853,0.1613 -0.0245,0.0461 -0.0457,0.094 -0.0708,0.13974 -0.0266,0.0459 -0.0322,0.0981 -0.0362,0.14995 0.002,0.0458 -0.019,0.10801 0.017,0.14434 0.0303,0.0373 0.0759,0.0413 0.12062,0.0456 0.0372,-5.1e-4 0.0775,0.0106 0.11343,-0.003 0.008,-0.003 0.0156,-0.008 0.0233,-0.0126 0.01,-0.004 0.0198,-0.007 0.0297,-0.0106 0.009,-0.005 0.0176,-0.0111 0.0267,-0.0161 0.10732,-0.0593 -0.0518,0.0302 0.0567,-0.0254 0.008,-0.004 0.0318,-0.0202 0.0236,-0.0156 -0.37921,0.21576 -0.49396,0.31195 -0.3612,0.20274 0.0445,-0.0355 0.085,-0.076 0.1205,-0.12042 0.0406,-0.0538 0.0661,-0.11532 0.0938,-0.17606 0.0263,-0.0543 0.0347,-0.11321 0.0393,-0.17261 0.007,-0.18538 -0.0643,-0.0442 0.41391,-0.21666 0.0117,-0.004 -0.0102,0.0228 -0.0159,0.0339 -0.007,0.0143 -0.0156,0.0281 -0.0233,0.0422 -0.0563,0.10213 -0.12628,0.19483 -0.19351,0.28965 -0.0433,0.0592 -0.0837,0.12088 -0.12876,0.17871 -0.0292,0.0344 -0.0665,0.0606 -0.0972,0.0933 -0.14202,0.0732 -0.2785,0.15832 -0.42606,0.21959 -0.0122,0.005 -0.0147,-0.0225 -0.0178,-0.0353 -0.0151,-0.062 0.0449,-0.16899 0.0688,-0.2228 0.0568,-0.13088 0.12571,-0.25551 0.19092,-0.38212 0.037,-0.071 0.073,-0.14254 0.10721,-0.2149 0.0717,-0.18937 -0.0464,-0.0763 0.437,-0.22565 0.0157,-0.005 -0.0112,0.031 -0.0191,0.0454 -0.009,0.0173 -0.0216,0.0328 -0.0324,0.0492 -0.09,0.12895 -0.18512,0.2541 -0.28162,0.37823 -0.0645,0.0952 -0.14848,0.1729 -0.22814,0.25456 -0.13429,0.14668 -0.35601,0.22816 -0.51028,0.32041 -0.12539,0.075 0.25318,-0.14589 0.37976,-0.21884 -0.0768,0.0488 -0.15468,0.0955 -0.22923,0.14769 -0.0925,0.0737 -0.19088,0.14033 -0.28191,0.21582 -0.0636,0.0644 -0.12588,0.12942 -0.19252,0.19077 -0.0631,0.0652 -0.13115,0.12509 -0.20072,0.18328 -0.0394,0.0328 -0.0802,0.0615 -0.11756,0.0967 -0.0369,0.0256 -0.0682,0.0583 -0.10696,0.0811 -0.039,0.0234 -0.0728,0.0534 -0.10792,0.0819 -0.0422,0.0256 -0.0806,0.0566 -0.12053,0.0855 -0.0558,0.0397 -0.10789,0.0842 -0.16027,0.1282 -0.0523,0.0523 -0.11739,0.0884 -0.17172,0.13799 -0.027,0.0281 -0.0551,0.0536 -0.0865,0.0768 0,0 -0.43387,0.18367 -0.43387,0.18367 l 0,0 c 0.0216,-0.0368 0.0629,-0.0466 0.0855,-0.0833 0.0306,-0.0265 0.0155,-0.0121 0.0451,-0.0436 0.0398,-0.0354 0.0933,-0.0532 0.12771,-0.0957 0.0516,-0.0455 0.10483,-0.0884 0.15731,-0.13256 0.0417,-0.0268 0.0795,-0.0575 0.11859,-0.0872 0.0426,-0.0188 0.0683,-0.0574 0.10892,-0.0792 0.0344,-0.0285 0.0773,-0.0456 0.1073,-0.0804 0.0245,-0.0134 0.0331,-0.027 0.052,-0.0464 0.021,-0.0216 0.0193,-0.0127 0.0448,-0.0286 0.008,-0.005 0.0159,-0.0119 0.0238,-0.0178 0.0659,-0.0632 0.14497,-0.11239 0.20342,-0.18379 0.0666,-0.0611 0.13326,-0.12147 0.19142,-0.19098 0.0861,-0.0828 0.19251,-0.14142 0.28151,-0.22137 0.0732,-0.0525 0.14866,-0.10004 0.22373,-0.14966 0.14158,-0.0818 0.2816,-0.16637 0.42473,-0.24544 0.12848,-0.071 -0.2535,0.14805 -0.38078,0.22116 -0.007,0.004 0.0135,-0.0104 0.021,-0.0145 0.0268,-0.0146 0.0539,-0.0232 0.0725,-0.0503 0.0739,-0.0883 0.17304,-0.15422 0.23502,-0.25372 0.0953,-0.12337 0.1922,-0.24554 0.27909,-0.37512 0.0111,-0.0143 0.0226,-0.0284 0.0334,-0.043 0.008,-0.0109 0.0112,-0.0266 0.0228,-0.0334 0.60161,-0.35051 0.46446,-0.36985 0.4123,-0.17401 -0.0295,0.076 -0.0732,0.14645 -0.10997,0.2191 -0.0618,0.12836 -0.13925,0.24903 -0.19361,0.38129 -0.0416,0.0916 -0.0206,0.0419 -0.0536,0.12645 -0.005,0.0136 -0.0108,0.0272 -0.0161,0.0408 -0.003,0.007 -0.002,0.0152 -0.008,0.0202 -0.002,0.002 -0.005,-0.007 -0.008,-0.006 -0.1342,0.0726 -0.26556,0.1503 -0.39835,0.22544 0.0357,-0.0215 0.0675,-0.0625 0.1005,-0.0889 0.0269,-0.0212 0.0382,-0.0418 0.0571,-0.07 0.0241,-0.0358 0.0571,-0.0643 0.0778,-0.10261 0.0645,-0.0957 0.1409,-0.18294 0.1942,-0.28624 0.008,-0.0126 0.0165,-0.0249 0.0238,-0.0379 0.006,-0.0103 0.005,-0.0261 0.0155,-0.032 0.53042,-0.30637 0.44351,-0.38459 0.43257,-0.18964 -0.003,0.0638 -0.008,0.12806 -0.0323,0.18792 -0.0274,0.0624 -0.0511,0.1264 -0.0901,0.18264 -0.0283,0.0519 -0.0717,0.0933 -0.11479,0.13309 -0.16196,0.13619 -0.35754,0.2346 -0.55189,0.31866 -0.0591,0.0204 -0.11885,0.0184 -0.18034,0.009 -0.0546,-0.0106 -0.10461,-0.0285 -0.14003,-0.074 -0.0402,-0.0532 -0.0373,-0.1115 -0.0332,-0.1758 0.003,-0.0566 0.005,-0.11444 0.0269,-0.16763 0.0237,-0.047 0.0499,-0.0924 0.0712,-0.14061 0.0284,-0.0541 0.0592,-0.10601 0.0854,-0.16125 0.0293,-0.0621 0.0738,-0.11569 0.11507,-0.17025 0.141,-0.13528 0.0465,-0.0483 0.45274,-0.26912 0.0147,-0.008 0.0623,-0.005 0.0766,0.005 0.01,0.006 0.0161,0.0168 0.0241,0.0251 0.018,0.0616 -0.034,0.0962 -0.0656,0.14239 -0.0344,0.0394 -0.0679,0.0806 -0.0949,0.125 -0.0313,0.0426 -0.0519,0.0928 -0.0866,0.13351 -0.029,0.0417 -0.0643,0.0763 -0.10255,0.1091 -0.0236,0.0417 -0.0461,0.0819 -0.076,0.11954 -0.0212,0.05 -0.0591,0.0909 -0.073,0.14451 -0.0254,0.0559 -0.0681,0.10295 -0.0901,0.16085 -0.0266,0.0924 -0.0658,0.18093 -0.0889,0.27465 0,0 -0.42229,0.20366 -0.42229,0.20366 z"
       inkscape:connector-curvature="0" />
    <path
       id="path3481"
       d="m 383.64393,518.57356 c -0.0277,-0.10426 -0.0559,-0.20816 -0.0743,-0.31452 -0.006,-0.0758 -0.0208,-0.14955 -0.0406,-0.22284 -0.0203,-0.0697 -0.0298,-0.14155 -0.035,-0.21376 -0.0138,-0.18198 -0.0295,-0.0657 0.40946,-0.21384 0.0124,-0.004 -0.005,0.0256 -0.008,0.0385 -0.008,0.0533 -0.004,0.027 -0.0128,0.0789 -0.0158,0.0621 -0.0271,0.12479 -0.0328,0.18856 -6.2e-4,0.0102 -0.001,0.0203 -0.002,0.0305 -3.6e-4,0.008 -5.2e-4,0.0154 -6.4e-4,0.0231 -9e-5,0.006 0.006,0.0144 0.001,0.0168 -0.42891,0.20027 -0.46044,0.34105 -0.41528,0.17098 0.009,-0.0614 0.0265,-0.11786 0.0528,-0.17381 0.0209,-0.0498 0.0308,-0.10317 0.0463,-0.15485 0.014,0.0349 -3.1e-4,-0.033 0.004,-0.0254 0.0886,0.16314 -0.24877,0.13877 0.4101,-0.18965 0.009,-0.004 -0.008,0.0179 -0.0103,0.0272 -0.003,0.012 -0.005,0.0244 -0.008,0.0366 -0.0322,0.18742 -0.29001,0.4726 -0.48036,0.33559 -0.0404,-0.0433 -0.0448,-0.1019 -0.0492,-0.15817 -0.006,-0.0609 -0.003,-0.12068 0.009,-0.18053 0.0132,-0.0558 0.0143,-0.11315 0.0207,-0.1698 0.004,-0.0472 0.0281,-0.0797 0.061,-0.11134 0,0 0.43426,-0.17713 0.43426,-0.17713 l 0,0 c -0.0301,0.0252 -0.0677,0.0392 -0.0729,0.0826 -0.0144,0.0555 -0.006,0.11475 -0.0202,0.17073 -0.0117,0.0566 -0.0232,0.111 -0.0151,0.16946 0.002,0.0285 -0.003,0.0907 0.0224,0.10897 0.0981,-0.12552 0.0151,-0.0176 -0.38679,0.22184 -0.005,0.003 0.0112,-9.7e-4 0.0155,-0.004 0.0252,-0.0184 0.0326,-0.0556 0.0405,-0.0829 0.002,-0.0129 0.0106,-0.0733 0.0107,-0.0734 0.13302,-0.0917 0.26904,-0.18038 0.41291,-0.25393 0.0267,-0.0136 0.0279,0.0654 0.026,0.0713 -0.0137,0.0542 -0.0314,0.10674 -0.0437,0.16133 -0.0232,0.0552 -0.0559,0.10314 -0.0555,0.1659 -0.0401,0.17776 10e-4,0.0186 -0.433,0.24255 -0.005,0.002 0.003,-0.01 0.003,-0.0151 5.5e-4,-0.008 9.7e-4,-0.016 10e-4,-0.024 5.1e-4,-0.0105 8.8e-4,-0.021 10e-4,-0.0315 0.004,-0.0657 0.0123,-0.13112 0.0309,-0.19455 0.007,-0.0269 0.0141,-0.1143 0.0198,-0.11807 0.46816,-0.30691 0.42345,-0.40159 0.42954,-0.20494 0.004,0.0694 0.0106,0.1386 0.0298,0.20566 0.0206,0.0749 0.0392,0.14958 0.0421,0.22769 0.0157,0.1058 0.0406,0.20982 0.0743,0.31139 0,0 -0.41297,0.22192 -0.41297,0.22192 z"
       inkscape:connector-curvature="0" />
    <path
       id="path3485"
       d="m 390.86888,532.80979 c 0.13536,-0.28715 0.24971,-0.58201 0.35355,-0.88166 0.0752,-0.19165 0.11931,-0.3909 0.14026,-0.59506 0.003,-0.16056 0.0471,-0.31527 0.072,-0.47287 0.0697,-0.54802 -0.71767,0.0291 1.18184,-0.59195 0.0319,-0.0104 -0.0338,0.0581 -0.0499,0.0875 -0.019,0.0347 -0.037,0.0699 -0.0555,0.10482 -0.0828,0.1987 -0.22661,0.35662 -0.35903,0.52199 -0.0802,0.12032 -0.13274,0.25635 -0.23823,0.35759 -0.0913,0.0885 -0.1508,0.20613 -0.20321,0.32085 -0.0698,0.11763 -0.10617,0.24961 -0.16196,0.37383 -0.0674,0.11253 -0.12282,0.23112 -0.20232,0.33596 -0.0225,-0.0104 -0.085,0.17909 -0.0926,0.1727 -0.0182,-0.0153 0.008,-0.0475 0.0131,-0.0568 0.27585,-0.32559 1.04356,-0.62109 -0.97162,0.52365 -0.0323,0.0183 0.0626,-0.0401 0.0932,-0.0612 0.10387,-0.0718 0.0993,-0.072 0.199,-0.15552 0.16756,-0.15061 0.32478,-0.31286 0.47786,-0.4781 0.11566,-0.13674 0.25163,-0.25383 0.37599,-0.38208 0.12008,-0.11634 0.25735,-0.21415 0.39037,-0.31527 0.38184,-0.33942 0.86498,-0.53365 1.31641,-0.77305 0.36577,-0.19397 -0.71845,0.41173 -1.0796,0.61416 -0.0427,0.0239 0.0796,-0.057 0.11876,-0.0864 0.0893,-0.0814 0.0432,-0.041 0.13846,-0.12082 0,0 1.23312,-0.4898 1.23312,-0.4898 l 0,0 c -0.10027,0.0656 -0.0532,0.03 -0.14164,0.10632 -0.31162,0.35318 -1.26748,0.77524 -1.31168,0.80192 -0.35506,0.2144 0.71865,-0.41438 1.07635,-0.62436 0.0398,-0.0234 -0.16942,0.0791 -0.11906,0.0704 -0.11572,0.11912 -0.26051,0.20964 -0.39635,0.30381 -0.11934,0.1351 -0.25591,0.24979 -0.37857,0.38149 -0.15108,0.17117 -0.31129,0.33486 -0.47758,0.49106 -0.0845,0.0854 -0.17418,0.17491 -0.27858,0.23695 -0.4033,0.23963 -0.80799,0.47696 -1.21556,0.70925 -0.0217,0.0124 -0.0462,0.0211 -0.071,0.024 -0.0228,0.003 -0.0456,-0.005 -0.0684,-0.007 -0.17386,-0.11108 -0.12222,-0.19538 -0.051,-0.355 0.0716,-0.10795 0.15888,-0.20307 0.20664,-0.32645 0.0875,-0.10916 0.10233,-0.24699 0.16376,-0.36989 0.0746,-0.1108 0.11079,-0.2453 0.18803,-0.35567 0.17667,-0.1798 -0.0853,0.0798 0.0976,-0.079 0.074,-0.0643 0.10516,-0.1763 0.15246,-0.25844 0.11245,-0.17797 0.29202,-0.30764 0.36959,-0.50818 0.0182,-0.034 0.0375,-0.0674 0.0546,-0.10191 0.0154,-0.031 0.0124,-0.0784 0.0431,-0.0944 0.41242,-0.21598 0.84936,-0.38213 1.26551,-0.59083 0.0186,-0.009 -0.0515,-0.0766 -0.0403,0.0573 -0.0186,0.158 -0.0659,0.3099 -0.0765,0.46784 -0.0159,0.21485 -0.0507,0.42693 -0.13081,0.62837 -0.11112,0.29804 -0.21538,0.59804 -0.34569,0.88867 0,0 -1.20483,0.55171 -1.20483,0.55171 z"
       inkscape:connector-curvature="0" />
    <path
       id="path3487"
       d="m 392.30404,531.91925 c 0.15104,-0.25599 0.33066,-0.49025 0.50932,-0.72671 0.0201,-0.027 0.0401,-0.054 0.0602,-0.081 0,0 1.21906,-0.5212 1.21906,-0.5212 l 0,0 c -0.0215,0.0253 -0.0431,0.0506 -0.0647,0.0759 -0.076,0.11102 -0.16507,0.20551 -0.24728,0.31135 -0.0919,0.11837 -0.10208,0.15265 -0.18193,0.28088 -0.0264,0.0425 -0.0545,0.0839 -0.0817,0.12585 0,0 -1.21301,0.53498 -1.21301,0.53498 z"
       inkscape:connector-curvature="0" />
    <path
       id="path3489"
       d="m 349.95699,566.84651 c 0.14365,-0.0122 0.28668,-0.0192 0.42796,-0.0485 0.0816,-0.0128 0.15472,-0.0515 0.22744,-0.0875 0.0457,-0.0238 0.0985,-0.0185 0.14695,-0.0294 0.023,-0.005 0.0444,-0.016 0.0668,-0.023 0.0727,-0.0112 0.13656,-0.0441 0.20892,-0.0579 0.0732,-0.002 0.12643,-0.0529 0.19182,-0.0774 -0.18098,0.1032 -0.71814,0.42236 -0.54296,0.3096 0.19339,-0.12447 0.39743,-0.23159 0.59764,-0.34479 0.01,-0.006 0.0425,-0.0173 0.0326,-0.0115 -0.17985,0.10507 -0.72008,0.41896 -0.5428,0.3096 0.19577,-0.12078 0.39784,-0.23105 0.59832,-0.34385 0.18186,-0.10232 -0.36166,0.20829 -0.54248,0.31243 0.20889,-0.15319 0.0771,-0.058 0.62377,-0.36503 0.0104,-0.006 0.0234,-0.005 0.0346,-0.009 0.0118,-0.004 0.0453,-0.0216 0.0344,-0.0153 -0.75171,0.43355 -0.70288,0.40461 -0.50569,0.28637 0.35186,-0.20519 1.37663,-0.79026 0.20737,-0.11856 0.0561,-0.046 0.11202,-0.0936 0.16532,-0.14323 0.0552,-0.0375 0.1046,-0.0787 0.14796,-0.12967 0.0493,-0.0469 0.10557,-0.0845 0.15426,-0.13243 0.0518,-0.0585 0.10222,-0.11827 0.15245,-0.17811 0.0424,-0.0485 0.0899,-0.0921 0.1328,-0.14007 0.0362,-0.0524 0.0813,-0.0971 0.12256,-0.14561 0.0348,-0.0559 0.0708,-0.11062 0.10896,-0.16434 0.0535,-0.0765 0.10176,-0.15682 0.15056,-0.23647 0.0488,-0.0667 0.0822,-0.13962 0.11251,-0.21593 0.11425,-0.33782 0.0571,-0.16086 0.66038,-0.40246 -0.0185,0.0954 -0.0647,0.18202 -0.1062,0.26894 -0.0325,0.0654 -0.0648,0.13086 -0.10065,0.19449 -0.0418,0.0518 -0.064,0.11465 -0.0933,0.17363 -0.0356,0.0546 -0.0631,0.11354 -0.10271,0.16551 -0.0492,0.0552 -0.086,0.11892 -0.12815,0.1795 -0.0541,0.0756 -0.10237,0.155 -0.15504,0.23157 -0.0482,0.0605 -0.10449,0.11393 -0.1479,0.1781 -0.0512,0.0543 -0.103,0.10667 -0.1521,0.16333 -0.0474,0.0572 -0.0974,0.1122 -0.14601,0.16837 -0.0394,0.0526 -0.0979,0.0838 -0.14194,0.1311 -0.18684,0.1797 -0.4796,0.28897 -0.67047,0.41016 -0.16761,0.10642 0.68387,-0.40337 0.51692,-0.29591 -0.20462,0.20235 -0.47942,0.32207 -0.74422,0.42481 0.18118,-0.10289 0.71624,-0.42521 0.54353,-0.30867 -0.1906,0.12861 -0.39734,0.23154 -0.59734,0.34498 -0.01,0.006 -0.042,0.0178 -0.0321,0.012 0.17994,-0.10503 0.71822,-0.4224 0.54273,-0.31009 -0.47715,0.30535 -0.38688,0.27153 -0.63012,0.35653 -0.0119,0.003 -0.0242,0.004 -0.0357,0.008 -0.0104,0.004 -0.0194,0.0109 -0.029,0.0163 -0.0105,0.004 -0.0208,0.009 -0.0316,0.013 -0.0358,0.0124 -0.0728,0.0172 -0.11014,0.0221 -0.23817,0.0408 -0.50074,0.29046 0.51847,-0.38057 0.008,-0.006 0.0202,0.002 0.0301,9e-5 0.0258,-0.004 0.0506,-0.0124 0.0762,-0.0169 0.0989,-0.0104 0.19239,-0.0418 0.29048,-0.0578 0.10175,-0.031 0.1948,-0.0818 0.29636,-0.1137 0.24534,-0.0976 0.65536,-0.35117 -0.34104,0.21829 0.02,-0.008 0.11387,-0.0973 0.12036,-0.0873 -0.0651,0.007 -0.13137,0.0276 -0.19379,0.0516 -0.11418,0.0364 -0.2198,0.0934 -0.33204,0.13467 -0.20801,0.10908 -0.48319,0.28052 0.46478,-0.2695 0.004,-0.003 -0.0103,0.007 -0.0146,0.004 -0.0113,-0.007 -0.0203,-0.0521 -0.0217,-0.0575 0.071,-0.0195 0.14153,-0.0437 0.21488,-0.058 0.23959,-0.0896 0.63929,-0.34451 -0.33893,0.2164 1.67471,-0.96122 0.0599,-0.0333 0.0893,-0.0509 0.20128,-0.1205 0.40543,-0.23616 0.60952,-0.35183 0.0275,-0.0156 0.11325,-0.0558 0.0859,-0.04 -0.17651,0.10177 -0.35379,0.20219 -0.53068,0.30328 0.0681,-0.0378 0.12233,-0.0941 0.18471,-0.13951 0.0588,-0.0387 0.10786,-0.0861 0.14945,-0.1427 0.0433,-0.0635 0.094,-0.1213 0.13513,-0.18661 0.0371,-0.0643 0.074,-0.12567 0.12122,-0.18303 0.0386,-0.062 0.0582,-0.13371 0.0888,-0.19999 0.0278,-0.0731 0.066,-0.14114 0.10384,-0.2093 0.043,-0.0603 0.0677,-0.1303 0.0996,-0.19657 0.0333,-0.0685 0.0657,-0.13746 0.0961,-0.20729 0.0287,-0.061 0.063,-0.11972 0.0873,-0.18264 0.0345,-0.0853 0.0476,-0.1764 0.0727,-0.26439 0.028,-0.07 0.0603,-0.13594 0.0757,-0.21026 0.005,-0.0752 0.0206,-0.14812 0.0361,-0.22161 0.39619,-0.0991 0.71309,-0.42548 0.53292,-0.19004 -0.0583,0.0762 -0.11742,0.15133 -0.17436,0.22854 -0.15179,0.23625 -0.29725,0.47652 -0.44364,0.71619 -0.0954,0.1689 -0.18671,0.34001 -0.2801,0.51001 -0.0568,0.1227 -0.12639,0.23684 -0.20646,0.34543 -0.0514,0.0725 -0.0913,0.15029 -0.15337,0.2147 -0.0478,0.0516 -0.084,0.11261 -0.13943,0.15663 -0.0511,0.0392 -0.0989,0.0821 -0.14851,0.12303 -0.23665,0.15472 -0.45861,0.35564 -0.7353,0.42946 -0.0687,0.0129 -0.13183,0.0445 -0.19515,0.0729 -0.20934,0.0215 0.0251,-0.19629 0.053,-0.22559 0.16792,-0.17208 0.31387,-0.36322 0.46209,-0.55198 0.13865,-0.15912 0.26273,-0.32966 0.38265,-0.50308 0.0128,-0.0196 0.0257,-0.0392 0.0382,-0.0589 0.0154,-0.0242 0.0492,-0.0778 0.0634,-0.10437 0.007,-0.0124 0.0265,-0.0882 0.0242,-0.0528 -0.0832,0.2297 -0.0285,0.0446 0.47611,-0.2306 0.0345,-0.0188 -0.066,0.0427 -0.0985,0.0649 -0.11687,0.0797 -0.22503,0.16714 -0.33296,0.25846 -0.23881,0.20619 -0.47593,0.41413 -0.70812,0.62775 -0.10919,0.10824 -0.23187,0.20228 -0.34032,0.31117 -0.0834,-0.24004 0.003,-0.0367 -0.57211,0.24253 -0.0208,0.0101 0.0373,-0.0273 0.0559,-0.041 0.0854,-0.0628 0.16538,-0.12815 0.24448,-0.19868 0.17071,-0.15182 0.34253,-0.30257 0.51753,-0.44946 0.12463,-0.0999 0.25389,-0.19378 0.38412,-0.28621 0.50336,-0.17912 0.73623,-0.38535 0.51451,-0.10969 -0.13111,0.163 -0.27789,0.31546 -0.41909,0.46969 -0.11757,0.12739 -0.2352,0.25401 -0.34368,0.38927 -0.004,-0.002 -0.0586,0.0759 -0.0587,0.0759 -0.008,-0.006 -0.0251,-0.0626 -0.0217,-0.0714 0.005,-0.0123 0.0207,-0.0163 0.031,-0.0245 -0.93031,0.55866 -0.55921,0.34321 -0.37591,0.18412 0.0814,-0.0706 0.15697,-0.14722 0.23285,-0.22362 0.11484,-0.11345 0.20521,-0.24709 0.29509,-0.3802 0.0379,-0.0604 0.0757,-0.12801 0.0555,-0.20066 -0.0204,-0.0547 -0.0574,-0.0939 -0.1123,-0.11274 -0.0105,-0.002 -0.0208,-0.006 -0.0316,-0.007 -0.0598,-0.002 -0.24497,0.12436 -0.1544,0.0767 0.44651,-0.2351 0.62002,-0.3809 0.366,-0.18021 -0.16254,0.13612 -0.30879,0.29345 -0.43777,0.46173 -0.0106,0.0166 -0.0217,0.0329 -0.0318,0.0498 -0.007,0.0123 -0.014,0.025 -0.0208,0.0376 -0.004,0.008 -0.004,0.0196 -0.012,0.0233 -0.45031,0.20981 -0.68908,0.47417 -0.58025,0.14689 0.054,-0.12394 0.11673,-0.24232 0.15559,-0.37234 0.007,-0.0408 0.009,-0.0395 0.009,-0.0757 3e-5,-0.004 -0.003,-0.0151 -9.5e-4,-0.0118 0.007,0.0101 0.005,0.0385 0.0162,0.0333 0.57216,-0.26511 0.60274,-0.51947 0.56391,-0.27092 -0.008,0.0688 0.005,0.13965 0.0244,0.20573 0.0374,0.0527 0.064,0.11133 0.0934,0.16859 0.03,0.0549 0.0458,0.12221 0.0896,0.16801 0.28954,0.17307 -0.29829,0.42239 -0.56447,0.42596 -0.067,-0.01 -0.14105,0.0124 -0.20727,-0.002 -0.0156,-0.003 -0.0295,-0.0121 -0.0442,-0.0182 -0.0746,-0.0355 -0.14963,-0.0684 -0.22612,-0.0995 -0.007,-0.004 -0.0148,-0.007 -0.0202,-0.0127 -0.008,-0.009 -0.0358,-0.0615 -0.0217,-0.071 0.49336,-0.33242 0.38224,-0.32175 0.6699,-0.35585 0.10532,-0.0112 0.21141,-0.0115 0.3172,-0.0126 0.0971,-6.8e-4 0.19428,-4.4e-4 0.29142,-3.3e-4 0.0774,0.0189 0.1551,0.0327 0.23445,0.0394 0.0856,0.006 0.17143,0.006 0.25718,0.006 0.041,-4.5e-4 0.0229,-2e-5 0.0543,-10e-4 0,0 -0.53971,0.39204 -0.53971,0.39204 l 0,0 c -0.0295,-10e-4 -0.0123,-5.5e-4 -0.0518,-10e-4 -0.0872,-8e-4 -0.17458,-0.002 -0.26139,-0.0108 -0.077,-0.01 -0.15247,-0.0293 -0.22992,-0.0342 -0.0966,-2e-4 -0.19328,-6.1e-4 -0.28991,5.2e-4 -0.10416,0.002 -0.20905,0.003 -0.31175,0.0225 -0.22548,0.0576 -0.47958,0.34333 0.4766,-0.30033 0.005,-0.004 -0.0635,-0.0506 -0.0217,-0.0296 0.0737,0.0312 0.14509,0.068 0.22101,0.0936 0.0789,0.009 0.15928,0.004 0.23839,7e-5 0.2461,-0.0379 -0.0324,5.5e-4 -0.50509,0.3313 -0.006,0.004 0.048,0.0492 -0.005,0.007 -0.0102,-0.008 -0.02,-0.0169 -0.0301,-0.0254 -0.0432,-0.0539 -0.0679,-0.11953 -0.0973,-0.18165 -0.0311,-0.0607 -0.0606,-0.12175 -0.0987,-0.17858 -0.0243,-0.0729 -0.0388,-0.15376 -0.0373,-0.23037 0.0239,-0.3152 0.68866,-0.63547 0.60482,-0.25412 -0.0344,0.13264 -0.089,0.25559 -0.15362,0.37611 -0.0962,0.26218 -0.2543,0.20528 -0.62919,0.40092 -0.008,0.004 0.0117,-0.0126 0.0163,-0.0198 0.007,-0.011 0.0512,-0.0933 0.0528,-0.0964 0.12407,-0.17698 0.28034,-0.33364 0.4382,-0.47999 0.28394,-0.23935 0.10896,-0.10051 0.75013,-0.47689 0.0765,-0.0449 0.14895,-0.0616 0.22987,-0.0235 0.064,0.0366 0.11285,0.0894 0.14041,0.15863 0.0328,0.0892 0.0152,0.17432 -0.032,0.25596 -0.0889,0.13842 -0.18496,0.27354 -0.29644,0.39486 -0.33725,0.34386 -0.46654,0.45167 -0.97975,0.70627 -0.0144,0.005 -0.0283,0.017 -0.0433,0.0143 -0.0277,-0.005 -0.059,-0.0495 -0.0629,-0.0746 -3.4e-4,-0.002 0.064,-0.0733 0.0647,-0.074 0.10596,-0.14337 0.23266,-0.26852 0.3528,-0.39978 0.10877,-0.11527 0.21501,-0.23293 0.32034,-0.35137 0.0328,-0.0369 0.065,-0.0743 0.0971,-0.11178 0.0239,-0.0278 0.0388,-0.0665 0.0709,-0.0841 0.20573,-0.11272 0.42353,-0.20188 0.63529,-0.30282 -0.1441,0.0734 -0.26242,0.19237 -0.39715,0.28063 -0.17603,0.14522 -0.34654,0.29694 -0.51871,0.4466 -0.28297,0.2659 -0.50473,0.40205 -0.90572,0.57091 -0.0192,0.008 -0.0232,-0.0345 -0.0348,-0.0517 0.023,-0.0804 0.10827,-0.12629 0.16813,-0.17843 0.0601,-0.0524 0.11634,-0.10908 0.17695,-0.16089 0.23399,-0.21248 0.46919,-0.4234 0.70854,-0.62992 0.32639,-0.28732 0.66044,-0.49878 1.05948,-0.69801 0.0204,-0.0102 0.0446,0.009 0.067,0.0137 0.009,0.0135 0.0223,0.025 0.0273,0.0406 0.0248,0.0772 -0.0881,0.19664 -0.11849,0.26012 -0.1224,0.17428 -0.24373,0.34991 -0.38587,0.50898 -0.15024,0.18654 -0.29101,0.38085 -0.45552,0.55554 -0.009,0.01 -0.12218,0.13278 -0.13289,0.12819 -0.0192,-0.008 -0.029,-0.0307 -0.0394,-0.0488 -0.006,-0.0104 0.0677,0.013 0.0331,-0.0138 0.0637,-0.0285 0.1317,-0.046 0.19683,-0.0707 0.20705,-0.11499 0.11925,-0.0665 -0.51021,0.29934 -0.009,0.005 0.0182,-0.0107 0.0263,-0.0173 0.11673,-0.096 -0.0693,0.0447 0.0512,-0.039 0.009,-0.006 0.0166,-0.0141 0.0249,-0.0211 0.0602,-0.0264 0.0964,-0.0804 0.15236,-0.11337 0.0659,-0.0615 -0.0186,0.0136 0.0524,-0.038 0.0383,-0.0279 0.0611,-0.0767 0.0907,-0.11252 0.009,-0.01 0.0181,-0.0198 0.0271,-0.0297 0.0103,-0.008 0.0215,-0.0159 0.0308,-0.0254 0.0324,-0.0329 0.0494,-0.0718 0.0719,-0.11104 0.008,-0.0148 0.0186,-0.0287 0.0279,-0.043 0.0831,-0.10566 0.16179,-0.21343 0.21456,-0.33832 0.0947,-0.17189 0.18914,-0.34377 0.28424,-0.51543 0.14863,-0.23843 0.29579,-0.47734 0.43921,-0.71893 0.0851,-0.12406 0.77179,-1.0981 0.84285,-0.58654 -0.0215,0.0709 -0.038,0.14299 -0.0399,0.21721 -0.0102,0.0775 -0.0272,0.15254 -0.0726,0.21793 -0.0272,0.0878 -0.0403,0.17826 -0.0713,0.2647 -0.0174,0.0699 -0.0528,0.12871 -0.0821,0.19372 -0.041,0.0639 -0.0629,0.13952 -0.0964,0.20746 -0.0381,0.0655 -0.0598,0.13674 -0.0972,0.20226 -0.0459,0.0593 -0.0792,0.1315 -0.10807,0.20008 -0.0311,0.0693 -0.0627,0.13673 -0.0835,0.21002 -0.0192,0.0339 -0.0401,0.0508 -0.0651,0.079 -0.024,0.0272 -0.0203,0.0358 -0.0366,0.0688 -0.006,0.0123 -0.0136,0.0238 -0.0203,0.0357 -0.0449,0.0608 -0.0755,0.13337 -0.13662,0.18117 -0.029,0.0662 -0.078,0.12883 -0.13995,0.16669 -0.01,0.009 -0.0199,0.017 -0.0299,0.0255 -0.011,0.006 -0.0232,0.0102 -0.033,0.018 -0.0406,0.0323 -0.072,0.0786 -0.12044,0.10183 -0.20186,0.11739 -0.40315,0.23575 -0.60557,0.35217 -0.0271,0.0156 -0.11054,0.0584 -0.0835,0.0426 0.17457,-0.10167 0.70005,-0.40364 0.5245,-0.30366 -0.25932,0.14769 -1.26431,0.73289 -0.0892,0.0494 -0.24578,0.14266 -0.5144,0.35046 -0.80771,0.42566 -0.0751,0.0195 -0.15087,0.05 -0.22951,0.045 -0.0105,-0.0108 -0.0833,-0.0725 -0.0422,-0.097 0.21226,-0.1265 0.44022,-0.27809 0.67755,-0.37837 0.11011,-0.0465 0.21955,-0.0952 0.33376,-0.13115 0.0861,-0.0239 0.18467,-0.0508 0.25183,0.0255 0.0466,0.0949 -0.0214,0.11413 -0.0818,0.17405 -0.27172,0.15755 -0.51113,0.32799 -0.8008,0.43056 -0.0999,0.0383 -0.19674,0.0878 -0.30309,0.10608 -0.0972,0.02 -0.19292,0.0463 -0.29191,0.0568 -0.41492,0.0594 0.16806,-0.36517 0.436,-0.40161 0.0683,-0.0171 0.13207,-0.0464 0.19723,-0.0725 0.25536,-0.14387 -0.80956,0.45597 -0.51153,0.29654 0.20282,-0.10849 0.39887,-0.2292 0.59832,-0.34379 0.45744,-0.26281 -1.90822,1.09981 0.0879,-0.0457 0.43873,-0.18933 -0.70485,0.44554 -0.39351,0.24002 0.15723,-0.21068 0.0267,-0.0433 0.61637,-0.37479 0.18159,-0.10209 -0.35948,0.21061 -0.53942,0.31556 -0.0568,0.0331 0.13057,-0.093 0.0771,-0.0539 0.0669,-0.0612 -0.0221,0.0234 0.0425,-0.0493 0.0294,-0.0331 0.08,-0.038 0.0997,-0.082 0.0565,-0.0473 0.10149,-0.10874 0.14798,-0.16548 0.0516,-0.0536 0.0873,-0.11997 0.1541,-0.15726 0.049,-0.0587 0.0872,-0.12899 0.14782,-0.18 0.0629,-0.0685 0.10421,-0.15325 0.15678,-0.22959 0.0451,-0.0582 0.0747,-0.12672 0.12679,-0.17777 0.0357,-0.054 0.0793,-0.10158 0.10391,-0.1628 0.0444,-0.0524 0.0543,-0.12036 0.092,-0.17679 0.0493,-0.0529 0.0664,-0.12369 0.10761,-0.18236 0.0344,-0.0847 0.0816,-0.16336 0.11513,-0.24867 0.20254,-0.10554 0.40541,-0.21046 0.60762,-0.31662 0.004,-0.002 -0.0107,10e-4 -0.0142,0.005 -0.0329,0.0332 -0.0409,0.0959 -0.0574,0.13695 -0.0274,0.0792 -0.0529,0.16137 -0.10846,0.22608 -0.0447,0.0834 -0.10096,0.15959 -0.14632,0.24254 -0.0394,0.0528 -0.0821,0.10379 -0.10836,0.16442 -0.0346,0.0543 -0.0758,0.1009 -0.12382,0.14283 -0.0311,0.0614 -0.0862,0.0985 -0.12835,0.15151 -0.0587,0.0514 -0.1047,0.11749 -0.15315,0.17829 -0.0464,0.05 -0.0912,0.10185 -0.15307,0.13225 -0.0503,0.0442 -0.0805,0.11071 -0.14593,0.13598 -0.0399,0.0297 -0.0733,0.0661 -0.11143,0.0979 -0.009,0.008 -0.0215,0.0117 -0.0301,0.0202 -0.009,0.009 -0.0144,0.0204 -0.0216,0.0307 -0.19928,0.11685 -0.39847,0.23385 -0.59784,0.35054 -0.3424,0.2004 0.73353,-0.44368 0.39186,-0.22771 -0.22218,0.13269 -0.19231,0.11514 -0.63596,0.36442 -0.021,0.0118 -0.0863,0.0422 -0.0656,0.0301 0.57687,-0.3379 0.71348,-0.42623 0.51289,-0.29735 -0.19799,0.11674 -0.40656,0.21715 -0.59398,0.35021 -0.16969,0.12046 0.72553,-0.40769 0.54058,-0.3123 -0.20446,0.10547 -0.39941,0.22842 -0.59917,0.34252 -0.45832,0.26177 1.9075,-1.0998 -0.0873,0.0466 -0.0631,0.0335 -0.12774,0.057 -0.19894,0.0675 -0.069,0.0208 -0.13668,0.0448 -0.20726,0.0603 -0.0696,0.0188 -0.14351,0.0235 -0.20692,0.0615 -0.0743,0.0358 -0.15474,0.0585 -0.23605,0.0713 -0.14306,0.023 -0.28829,0.0255 -0.43179,0.0455 0,0 0.53214,-0.3957 0.53214,-0.3957 z"
       inkscape:connector-curvature="0" />
    <path
       id="path3491"
       d="m 466.99633,552.54085 c -0.19569,-0.0338 -0.39069,-0.071 -0.58789,-0.0953 -0.1663,-0.0106 -0.33085,-0.0363 -0.49655,-0.0531 -0.1078,-0.005 -0.2132,-0.0143 -0.31818,-0.0396 -0.24848,-0.13538 0.41687,-0.33314 0.53926,-0.40912 0.008,-0.005 0.0985,-10e-4 0.11124,-10e-4 0.0882,7e-5 0.17646,7.5e-4 0.2647,10e-4 0.0897,3.3e-4 0.17949,3.8e-4 0.26924,4.2e-4 0.0883,-0.003 0.1734,-0.002 0.25941,0.0177 0.0773,0.0183 0.15671,0.0224 0.23576,0.0253 0.10078,0.002 0.20161,0.002 0.30241,0.002 0.0799,0.0104 0.0396,0.005 0.1207,0.0159 0,0 -0.5397,0.38233 -0.5397,0.38233 l 0,0 c -0.0791,-0.008 -0.0403,-0.005 -0.11638,-0.009 -0.10204,-2e-5 -0.20416,10e-4 -0.3061,-0.004 -0.0814,-0.005 -0.16229,-0.0142 -0.24184,-0.0328 -0.0831,-0.0134 -0.16733,-0.006 -0.25117,-0.008 -0.0898,-8e-5 -0.17957,-2.2e-4 -0.26935,-6.2e-4 -0.088,-3.7e-4 -0.17603,-10e-4 -0.264,0.001 -0.0247,10e-4 -0.0505,0.002 -0.0751,0.006 -0.0102,0.002 -0.0385,0.0126 -0.0302,0.007 0.17292,-0.12597 0.35281,-0.24216 0.52602,-0.36775 0.012,-0.009 -0.0441,-0.0194 0.0114,-0.005 0.10223,0.0219 0.20633,0.0246 0.31002,0.036 0.16477,0.0195 0.32922,0.0412 0.49446,0.0563 0.19905,0.0279 0.39642,0.066 0.5952,0.0956 0,0 -0.5434,0.37865 -0.5434,0.37865 z"
       inkscape:connector-curvature="0" />
    <path
       id="path3493"
       d="m 475.45183,552.85073 c -0.086,0.10757 -0.17143,0.21782 -0.23644,0.33963 -0.12621,0.2733 0.11011,0.0678 -0.63996,0.33666 -0.004,10e-4 -0.005,-0.0349 -0.007,-0.0738 -0.002,-0.087 3.5e-4,-0.17393 0.001,-0.26088 7.8e-4,-0.086 -0.008,-0.17194 0.029,-0.25157 0.17315,-0.20653 0.4471,-0.44115 0.70688,-0.34544 0,0 -0.54533,0.37969 -0.54533,0.37969 l 0,0 c -0.0108,1.5e-4 -0.0217,-10e-4 -0.0323,4.5e-4 -0.009,0.002 -0.0333,0.0146 -0.0255,0.01 0.53125,-0.31436 0.73995,-0.37127 0.50852,-0.30515 -0.0732,0.0452 -0.0457,0.13719 -0.0497,0.21137 -7.5e-4,0.0857 -0.002,0.17147 -0.002,0.25721 0.007,0.28214 0.0481,0.0214 -0.5952,0.36694 -0.005,0.003 0.01,0.009 0.015,0.007 0.0209,-0.009 0.0156,-0.0523 0.0338,-0.0593 0.058,-0.12954 0.1485,-0.23843 0.2287,-0.35464 0,0 0.61059,-0.25842 0.61059,-0.25842 z"
       inkscape:connector-curvature="0" />
    <path
       id="path3495"
       d="m 491.43457,552.46764 c -0.0227,-0.0836 -0.0439,-0.16735 -0.0595,-0.2526 -0.007,-0.0404 -0.0162,-0.0973 -0.0147,-0.098 0.19455,-0.10265 0.39862,-0.18616 0.59793,-0.27924 0.0233,0.11149 0.0269,0.22615 0.031,0.33967 0.003,0.0979 0.003,0.19585 0.003,0.29378 0.003,0.0122 -0.007,0.13745 -0.0104,0.13941 -0.61122,0.31586 -0.49034,0.48593 -0.62958,0.26027 -0.036,-0.0806 -0.038,-0.16992 -0.0409,-0.25667 -0.004,-0.0873 0.004,-0.17505 -0.004,-0.26202 -0.0165,-0.078 -0.0281,-0.15647 -0.0345,-0.2359 -0.002,-0.0535 -0.0131,-0.151 0.0448,-0.18473 0.19938,-0.11609 0.4026,-0.22547 0.6039,-0.3382 0.0837,-0.0143 0.16032,-0.003 0.22452,0.054 0.0563,0.0687 0.0633,0.1562 0.0686,0.24134 0.003,0.0898 0.002,0.17965 0.002,0.26946 0.004,0.0686 -0.0119,0.13519 -0.0247,0.20194 0,0 -0.59724,0.29121 -0.59724,0.29121 l 0,0 c 0.0105,-0.0641 0.0322,-0.12694 0.0305,-0.19221 5.1e-4,-0.0887 0.002,-0.17733 -1.6e-4,-0.26598 -0.003,-0.0637 0.001,-0.13864 -0.0413,-0.19059 -0.0576,-0.0331 -0.12582,-0.0225 -0.18541,8.4e-4 0.17981,-0.10462 0.36107,-0.20677 0.53943,-0.31385 0.009,-0.005 -0.0207,0.004 -0.0303,0.008 -0.0481,0.0197 -0.0494,0.0675 -0.0448,0.11276 0.005,0.0783 0.0145,0.15603 0.033,0.23245 0.014,0.0886 0.003,0.17889 0.007,0.26836 0.002,0.075 3.7e-4,0.15278 0.0255,0.22437 0.13217,0.19727 0.0138,0.009 -0.55691,0.34339 -0.004,0.002 0.01,3.6e-4 0.0126,-0.003 0.009,-0.0104 0.017,-0.0492 0.0179,-0.0586 10e-4,-0.015 6e-5,-0.0301 10e-5,-0.0452 2.3e-4,-0.0975 7.1e-4,-0.19505 -9.4e-4,-0.29257 -0.003,-0.10777 -0.005,-0.21648 -0.0255,-0.32261 0.19294,-0.11395 0.38227,-0.23424 0.57881,-0.34186 0.008,-0.004 -0.005,0.0181 -0.005,0.0274 0.003,0.10516 0.0372,0.20738 0.0665,0.30724 0,0 -0.58097,0.31767 -0.58097,0.31767 z"
       inkscape:connector-curvature="0" />
    <path
       id="path3497"
       d="m 499.29441,556.86939 c -0.11053,0.17014 -0.21767,0.34245 -0.33075,0.51093 -0.0642,0.0881 -0.11492,0.18607 -0.19031,0.2654 -0.0417,0.0531 -0.0879,0.10003 -0.14179,0.1407 -0.20066,0.17038 -0.52375,0.3204 -0.70417,0.41838 -0.1831,0.0994 0.36179,-0.20682 0.54268,-0.31023 -0.0243,0.0146 -0.0366,0.0206 -0.058,0.0394 -0.008,0.007 -0.0446,0.0466 -0.0538,0.0521 -0.49199,0.29448 -0.40114,0.24652 -0.63497,0.36808 -0.0736,0.0368 -0.0351,0.0186 -0.11575,0.0542 0,0 0.51685,-0.41112 0.51685,-0.41112 l 0,0 c 0.0803,-0.0395 0.0415,-0.0196 0.11644,-0.0595 0.21444,-0.11852 0.0728,-0.0407 -0.50003,0.29451 -0.0103,0.006 0.021,-0.0115 0.0305,-0.0187 0.0389,-0.0294 0.0168,-0.0195 0.0506,-0.0558 0.008,-0.009 0.0183,-0.016 0.0274,-0.024 1.91591,-1.09932 -0.46612,0.27378 0.16631,-0.0956 0.0456,-0.0492 0.11201,-0.0751 0.14471,-0.13656 0.0372,-0.0394 0.0173,-0.0205 0.06,-0.0567 0.0562,-0.0592 0.0863,-0.14047 0.13971,-0.20209 0.11841,-0.16237 0.22287,-0.33468 0.32787,-0.50592 0,0 0.6065,-0.26749 0.6065,-0.26749 z"
       inkscape:connector-curvature="0" />
    <path
       id="path3499"
       d="m 321.73795,541.13201 c 0.0376,-0.28561 0.0593,-0.57317 0.0708,-0.86095 0.0129,-0.5143 -0.0939,-0.14992 1.18611,-0.61143 0.0297,-0.0107 -0.009,0.0626 -0.0132,0.0938 -0.0317,0.21636 0.001,-0.0201 -0.0288,0.19848 0,0 -1.18888,0.58635 -1.18888,0.58635 l 0,0 c 0.003,-0.0223 0.0353,-0.28494 0.0403,-0.28808 1.52676,-0.95094 1.23974,-1.09917 1.18834,-0.57388 -0.0216,0.28893 -0.0391,0.57816 -0.0663,0.86666 0,0 -1.18832,0.589 -1.18832,0.589 z"
       inkscape:connector-curvature="0" />
    <path
       id="path3501"
       d="m 321.29916,541.3041 c 0.0631,-0.28376 0.12494,-0.57146 0.13363,-0.86288 -0.008,-0.17975 -0.0338,-0.35801 -0.0468,-0.53746 -8e-5,-0.16137 -0.0152,-0.31786 -0.0482,-0.47545 -0.0352,-0.16429 -0.0445,-0.33218 -0.0506,-0.49958 -0.0242,-0.51734 -0.14821,-0.10845 1.18069,-0.63883 0.0232,-0.009 -10e-4,0.0499 -10e-4,0.0749 -7.3e-4,0.0584 -7.7e-4,0.11573 -9.5e-4,0.17421 -3.6e-4,0.18878 7.8e-4,0.37756 -2.3e-4,0.56635 0.006,0.1964 -0.0113,0.39425 0.008,0.58998 0.0275,0.13174 0.0811,0.26104 0.13556,0.38447 0.0458,0.14678 0.11865,0.26161 0.2219,0.37367 0.0259,0.0269 0.0518,0.0537 0.0777,0.0806 0,0 -1.12944,0.6907 -1.12944,0.6907 l 0,0 c -0.0276,-0.0276 -0.0552,-0.0552 -0.0828,-0.0829 -0.11119,-0.12216 -0.1961,-0.24993 -0.24597,-0.40871 -0.0613,-0.13454 -0.11612,-0.27767 -0.15233,-0.42028 -0.0297,-0.20009 -0.006,-0.40398 -0.0136,-0.60571 -10e-4,-0.18852 -4.1e-4,-0.37704 -10e-4,-0.56555 -1e-4,-0.0216 -0.0176,-0.23855 -0.002,-0.24831 1.32487,-0.82685 1.18328,-1.10385 1.18708,-0.57109 0.004,0.16005 0.01,0.32085 0.0412,0.47838 0.0342,0.16363 0.0624,0.32413 0.0556,0.49253 0.0111,0.18346 0.0346,0.36558 0.0478,0.54885 2.7e-4,0.29894 -0.0701,0.59242 -0.11926,0.8861 0,0 -1.1944,0.57603 -1.1944,0.57603 z"
       inkscape:connector-curvature="0" />
  </g>
</svg>
